<?xml version="1.0"?>
<svg xmlns="http://www.w3.org/2000/svg" xmlns:xlink="http://www.w3.org/1999/xlink" xmlns:svgjs="http://svgjs.com/svgjs" version="1.1" width="512" height="512" x="0" y="0" viewBox="0 0 512 512" style="enable-background:new 0 0 512 512" xml:space="preserve" class=""><g><g xmlns="http://www.w3.org/2000/svg"><g><path d="m237.428 325.558h-36.884c-5.522 0-10-4.477-10-9.999v-53.561c0-5.522 4.477-9.999 10-9.999s10 4.477 10 9.999v43.562h26.884c5.522 0 10 4.477 10 9.999 0 5.521-4.477 9.999-10 9.999z" fill="#00c65b" data-original="#000000" style="" class=""/><path d="m325.735 262.423c-1.946-5.167-7.714-7.777-12.883-5.831-5.168 1.947-7.779 7.715-5.831 12.883 3.743 9.931 6.018 20.179 6.887 30.456h-20.303c-5.522 0-10 4.477-10 9.999s4.477 9.999 10 9.999h20.234c-2.38 26.045-13.673 51.056-32.843 70.225-19.115 19.116-43.834 30.593-70.452 32.9v-20.066c0-5.522-4.477-9.999-10-9.999-5.522 0-10 4.477-10 9.999v20.07c-26.633-2.298-51.367-13.778-70.492-32.903-19.584-19.583-30.524-44.586-32.821-70.225h20.251c5.522 0 10-4.477 10-9.999s-4.477-9.999-10-9.999h-20.293c2.201-25.81 13.155-51.007 32.863-70.714 19.4-19.399 44.48-30.638 70.492-32.938v20.593c0 5.522 4.478 9.999 10 9.999s10-4.477 10-9.999v-20.595c13.843 1.222 27.609 4.999 40.595 11.446 4.945 2.453 10.947.437 13.404-4.51 2.456-4.946.437-10.947-4.51-13.403-51.501-25.571-113.437-15.418-154.123 25.265-52.17 52.17-52.17 137.053 0 189.222 25.273 25.272 58.873 39.189 94.614 39.189s69.342-13.917 94.615-39.189c37.09-37.09 49.1-92.779 30.596-141.875z" fill="#00c65b" data-original="#000000" style="" class=""/><g><path d="m292.092 236.358c-4.172 0-7.987-2.698-9.402-6.614-1.383-3.826-.254-8.219 2.809-10.9 3.287-2.878 8.16-3.266 11.869-.97 3.516 2.176 5.36 6.466 4.51 10.514-.96 4.576-5.098 7.97-9.786 7.97z" fill="#00c65b" data-original="#000000" style="" class=""/></g><path d="m509.36 119.82c-.75-3.931-3.773-7.037-7.683-7.893l-11.132-2.437c-2.547-8.444-5.936-16.6-10.125-24.362l6.067-10.292c1.972-3.348 1.828-7.535-.371-10.738-5.088-7.41-10.928-14.427-17.359-20.855-6.431-6.432-13.449-12.273-20.858-17.358-3.202-2.2-7.389-2.345-10.736-.371l-10.294 6.067c-7.761-4.189-15.917-7.579-24.363-10.126l-2.438-11.131c-.856-3.91-3.962-6.933-7.893-7.683-18.435-3.519-37.128-3.519-55.563 0-3.931.75-7.037 3.773-7.893 7.683l-2.438 11.131c-8.444 2.547-16.6 5.936-24.363 10.125l-10.294-6.066c-3.349-1.974-7.535-1.827-10.736.371-7.409 5.086-14.426 10.926-20.857 17.357-6.432 6.429-12.272 13.446-17.36 20.856-2.199 3.203-2.344 7.39-.371 10.738l6.067 10.293c-4.189 7.762-7.58 15.918-10.126 24.361l-3.691.808c-.273.06-.541.131-.804.211-24.238-4.238-48.777-4.046-72.988.577-3.932.75-7.037 3.773-7.893 7.683l-3.908 17.849c-13.056 3.754-25.62 8.972-37.492 15.572l-16.328-9.625c-3.349-1.974-7.536-1.827-10.738.371-10.147 6.966-19.763 14.97-28.583 23.788-8.812 8.812-16.815 18.427-23.787 28.58-2.2 3.203-2.345 7.39-.372 10.738l9.625 16.329c-6.599 11.87-11.819 24.437-15.573 37.49l-17.849 3.908c-4.588 1.004-7.86 5.069-7.86 9.768v72.395c0 4.698 3.271 8.763 7.861 9.768l17.849 3.908c3.754 13.055 8.972 25.619 15.573 37.49l-9.624 16.329c-1.973 3.348-1.828 7.534.371 10.737 6.972 10.152 14.974 19.768 23.787 28.581 8.816 8.816 18.433 16.819 28.583 23.788 3.203 2.198 7.39 2.342 10.737.371l16.329-9.623c11.872 6.599 24.437 11.818 37.492 15.571l3.908 17.849c.856 3.91 3.962 6.933 7.893 7.683 12.631 2.412 25.353 3.618 38.073 3.618s25.442-1.206 38.073-3.618c3.932-.75 7.037-3.773 7.893-7.683l3.908-17.849c13.055-3.754 25.62-8.972 37.492-15.571l16.329 9.623c3.347 1.973 7.535 1.826 10.737-.371 10.15-6.969 19.767-14.973 28.581-23.788 8.814-8.812 16.817-18.427 23.79-28.581 2.199-3.203 2.344-7.389.371-10.737l-9.624-16.329c6.6-11.872 11.82-24.438 15.572-37.49l17.85-3.908c3.91-.856 6.933-3.962 7.683-7.893 3.905-20.459 4.647-41.151 2.228-61.698.142-.397.26-.808.353-1.23l2.438-11.13c8.443-2.547 16.599-5.937 24.362-10.126l10.294 6.067c3.348 1.971 7.536 1.826 10.738-.371 7.41-5.088 14.427-10.928 20.856-17.358 6.432-6.431 12.273-13.448 17.359-20.857 2.199-3.203 2.344-7.389.371-10.736l-6.067-10.293c4.19-7.762 7.58-15.918 10.126-24.362l11.132-2.437c3.91-.856 6.933-3.962 7.683-7.893 3.52-18.436 3.52-37.13 0-55.563zm-130.4 217.782-17.22 3.77c-3.711.813-6.641 3.657-7.562 7.342-3.812 15.245-9.849 29.808-17.943 43.284-1.887 3.142-1.904 7.067-.043 10.225l9.29 15.763c-5.371 7.259-11.332 14.174-17.775 20.616-6.444 6.445-13.359 12.405-20.617 17.774l-15.762-9.289c-3.156-1.861-7.081-1.846-10.225.043-13.473 8.091-28.037 14.128-43.288 17.942-3.684.922-6.529 3.851-7.342 7.562l-3.771 17.219c-18.521 2.861-37.216 2.861-55.737 0l-3.77-17.219c-.813-3.711-3.657-6.64-7.342-7.562-15.251-3.814-29.815-9.851-43.288-17.942-3.142-1.89-7.067-1.903-10.225-.043l-15.763 9.289c-7.257-5.369-14.171-11.329-20.617-17.774-6.443-6.443-12.404-13.358-17.774-20.616l9.29-15.763c1.861-3.159 1.845-7.083-.043-10.226-8.093-13.472-14.129-28.035-17.944-43.284-.922-3.684-3.851-6.529-7.562-7.341l-15.927-3.487v-56.301l15.927-3.487c3.711-.812 6.64-3.657 7.562-7.342 3.814-15.249 9.851-29.813 17.944-43.284 1.889-3.143 1.904-7.068.043-10.226l-9.291-15.763c5.372-7.259 11.333-14.174 17.774-20.616 6.448-6.446 13.363-12.406 20.618-17.774l15.762 9.29c3.16 1.863 7.085 1.845 10.227-.043 13.472-8.092 28.035-14.129 43.287-17.943 3.684-.922 6.529-3.851 7.342-7.562l3.77-17.219c18.521-2.861 37.216-2.861 55.737 0l3.771 17.219c.813 3.711 3.657 6.64 7.342 7.562 15.251 3.814 29.815 9.851 43.287 17.943 3.144 1.888 7.067 1.903 10.227.043l15.762-9.29c7.257 5.37 14.172 11.33 20.617 17.774 6.442 6.442 12.403 13.357 17.774 20.616l-9.29 15.763c-1.861 3.158-1.844 7.083.043 10.225 8.094 13.476 14.131 28.038 17.943 43.284.922 3.685 3.852 6.53 7.562 7.342l17.22 3.77c2.861 18.521 2.861 37.215 0 55.736zm-13.323-142.297c-6.972-10.154-14.975-19.769-23.789-28.581-8.815-8.815-18.432-16.818-28.582-23.788-3.201-2.196-7.389-2.343-10.738-.371l-3.151 1.857c1.664-35.096 30.74-63.138 66.242-63.138 36.567 0 66.318 29.749 66.318 66.315s-29.75 66.315-66.318 66.315c-1.395 0-2.788-.044-4.175-.13l4.564-7.744c1.972-3.346 1.828-7.532-.371-10.735zm125.142-30.118-10.405 2.278c-3.711.812-6.642 3.657-7.563 7.342-2.66 10.64-6.873 20.801-12.52 30.203-1.888 3.143-1.904 7.068-.043 10.226l5.685 9.647c-3.461 4.535-7.252 8.868-11.319 12.935-4.066 4.066-8.399 7.857-12.935 11.318l-9.645-5.685c-3.158-1.861-7.084-1.844-10.226.043-9.404 5.647-19.567 9.86-30.206 12.521-3.359.84-6.02 3.349-7.079 6.598l-12.567-2.751c-2.565-8.92-5.814-17.613-9.721-26.012 1.127.044 2.255.066 3.385.066 47.595 0 86.317-38.72 86.317-86.314s-38.721-86.314-86.317-86.314-86.317 38.72-86.317 86.314c0 .317.002.634.005.952-9.807-4.906-20.042-8.899-30.599-11.934l-1.869-8.537 1.576-.345c3.711-.813 6.641-3.657 7.562-7.342 2.66-10.638 6.873-20.801 12.52-30.204 1.889-3.142 1.904-7.067.043-10.226l-5.686-9.645c3.461-4.536 7.253-8.87 11.319-12.936s8.399-7.857 12.934-11.318l9.647 5.685c3.158 1.862 7.084 1.845 10.226-.043 9.402-5.647 19.564-9.86 30.204-12.52 3.686-.921 6.53-3.851 7.343-7.562l2.278-10.405c11.695-1.627 23.48-1.627 35.175 0l2.278 10.405c.813 3.711 3.657 6.64 7.342 7.562 10.643 2.662 20.806 6.874 30.205 12.52 3.143 1.889 7.068 1.904 10.226.043l9.647-5.685c4.535 3.461 8.868 7.251 12.935 11.319 4.066 4.066 7.857 8.399 11.318 12.935l-5.685 9.645c-1.861 3.159-1.846 7.084.043 10.227 5.647 9.402 9.86 19.563 12.52 30.203.921 3.685 3.852 6.53 7.563 7.342l10.405 2.278c1.628 11.693 1.628 23.475.001 35.171z" fill="#00c65b" data-original="#000000" style="" class=""/></g></g></g></svg>
